<?xml version="1.0" encoding="utf-8"?>
<!-- Generator: Adobe Illustrator 19.2.1, SVG Export Plug-In . SVG Version: 6.00 Build 0)  -->
<svg version="1.1" id="Layer_1" xmlns="http://www.w3.org/2000/svg" xmlns:xlink="http://www.w3.org/1999/xlink" x="0px" y="0px"
	 viewBox="0 0 942.6 123.1" style="enable-background:new 0 0 942.6 123.1;" xml:space="preserve">
<style type="text/css">
	.st0{fill:#282828;}
</style>
<g>
	<path class="st0" d="M18.4,25.9c0-6.7,6.2-12.7,15.2-12.7c11.8,0,16.4,8.1,17.3,13.6l13.5-4.2C62.4,12.7,54.3,0,33.5,0
		c-16.4,0-30,12.2-30,27c0,13.2,9,22,22.4,24.8l12.5,2.6c7.6,1.6,11.8,6.2,11.8,12c0,6.8-5.5,12.2-16.1,12.2
		c-12.7,0-19.3-8.5-20.2-17.7L0,64.9C1.4,77.6,11.7,92,34.1,92c20.2,0,31.3-13,31.3-26.7c0-12.5-8.3-22.3-23.9-25.4l-12.7-2.6
		C21.9,35.7,18.4,31.5,18.4,25.9 M157.4,48.9V35.3H85v13.6h28.6v74.2h14.9V48.9H157.4z M223.4,46.1c0-21.4,14.6-32,29.1-32
		c14.8,0,23,8.6,25.7,19.3l14.1-4.7C288.2,13.2,274.9,0,252.5,0C229.6,0,208,17.3,208,46.1s20.8,46,44.6,46c22.5,0,36-14.3,40-29.3
		l-13.7-4.5c-3,10-11.5,19.4-26.3,19.4C237.6,77.7,223.4,66.8,223.4,46.1 M317.8,90.2h55.4V76h-40.5V1.9h-14.9V90.2z M447.6,15.8
		V1.9H393v88.3h54.6v-14H408V48.8h33.4V35.3H408V15.8H447.6z M553.6,90.2h14.8V1.9h-16.1l-29.7,47l-30-47h-15.8v88.3h14.6V26.8
		l31.2,46.8l31-47.1V90.2z M599.9,90.2h54.6v-14h-39.6V48.9h33.4V35.3h-33.4V15.8h39.6V1.9h-54.6V90.2z M758.2,90.2V1.9h-14.9v62.6
		L703.2,1.9h-19.1v88.3H699V23.3l43.6,66.9H758.2z M855.2,48.9V35.3h-72.4v13.6h28.6v74.2h14.9V48.9H855.2z M928.2,26.8l13.5-4.2
		c-2-9.8-10.1-22.5-30.9-22.5c-16.4,0-30,12.2-30,27c0,13.2,9,22,22.4,24.8l12.5,2.6c7.6,1.6,11.8,6.2,11.8,12
		c0,6.9-5.5,12.2-16.1,12.2c-12.7,0-19.3-8.5-20.2-17.7l-13.9,4c1.4,12.7,11.7,27.2,34.1,27.2c20.2,0,31.3-13.1,31.3-26.8
		c0-12.5-8.3-22.3-23.9-25.4L906,37.2c-6.9-1.5-10.3-5.7-10.3-11.3c0-6.7,6.2-12.7,15.2-12.7C922.7,13.2,927.3,21.3,928.2,26.8"/>
</g>
</svg>
